#!OML:ASF H:\Dans Jumps\Project 1\Capture day 1\Session 1\subject.ASF
:FULLY-SPECIFIED
:DEGREES
476
root 0.239797 17.8282 -1.99295 7.6105 0.977565 -1.42966
lowerback -1.92795 -0.970432 -0.382668
upperback 3.01412 -1.35396 1.94287
thorax 4.24396 -0.720196 2.14389
lowerneck -11.0138 0.51658 -1.96486
upperneck 39.4697 0.905231 1.02435
head 15.7989 0.219629 0.940696
rclavicle -1.98785e-015 8.34896e-015
rhumerus -27.3164 -19.2323 -78.7335
rradius 22.2667
rwrist 34.722
rhand -20.3039 -26.1108
rfingers 7.12502
rthumb 6.04646 -56.0045
lclavicle -1.98785e-015 8.34896e-015
lhumerus -23.5765 -6.39969 91.3843
lradius 17.4952
lwrist 4.60422
lhand -25.6174 -5.93264
lfingers 7.12502
lthumb 0.915314 24.0451
rfemur -14.7711 -3.10839 19.9209
rtibia 19.8571
rfoot -11.1445 -3.2295
rtoes 16.5438
lfemur -13.684 6.37616 -17.3947
ltibia 16.2834
lfoot -8.46335 0.617109
ltoes 5.35017
477
root 0.239453 17.8289 -1.99331 7.61688 0.991838 -1.4042
lowerback -1.94322 -0.964463 -0.365181
upperback 3.02169 -1.34642 1.93036
thorax 4.25941 -0.715769 2.12128
lowerneck -11.0096 0.513201 -1.97653
upperneck 39.4776 0.906039 1.0195
head 15.8019 0.21777 0.940979
rclavicle -8.69683e-015 7.95139e-016
rhumerus -27.29 -19.2022 -78.7829
rradius 22.2708
rwrist 34.7224
rhand -20.3013 -26.1216
rfingers 7.12502
rthumb 6.04893 -56.0153
lclavicle -8.69683e-015 7.95139e-016
lhumerus -23.4921 -6.49254 91.4522
lradius 17.6606
lwrist 4.80989
lhand -25.5162 -5.69817
lfingers 7.12502
lthumb 1.01305 24.2792
rfemur -14.7723 -3.10823 19.8937
rtibia 19.8502
rfoot -11.1497 -3.25759
rtoes 16.4885
lfemur -13.6668 6.40328 -17.4242
ltibia 16.2297
lfoot -8.449 0.570236
ltoes 5.39693
478
root 0.238862 17.8295 -1.99357 7.62057 1.00113 -1.37713
lowerback -1.95735 -0.956281 -0.350744
upperback 3.0278 -1.3357 1.91577
thorax 4.2726 -0.709793 2.09845
lowerneck -10.9921 0.509756 -1.97943
upperneck 39.4871 0.903742 1.01496
head 15.8027 0.215951 0.939231
rclavicle -2.18166e-014 6.36111e-015
rhumerus -27.2685 -19.1527 -78.8357
rradius 22.284
rwrist 34.7202
rhand -20.2807 -26.1351
rfingers 7.12502
rthumb 6.06884 -56.0281
lclavicle -2.18166e-014 6.36111e-015
lhumerus -23.4063 -6.56642 91.5071
lradius 17.8296
lwrist 5.01027
lhand -25.42 -5.44127
lfingers 7.12502
lthumb 1.10589 24.5356
rfemur -14.7722 -3.09869 19.8651
rtibia 19.8452
rfoot -11.153 -3.28967
rtoes 16.4365
lfemur -13.6443 6.43508 -17.454
ltibia 16.173
lfoot -8.43343 0.521944
ltoes 5.45691
479
root 0.238247 17.8302 -1.99415 7.62382 1.00647 -1.34938
lowerback -1.97202 -0.946566 -0.3363
upperback 3.03589 -1.32289 1.89924
thorax 4.28802 -0.702764 2.0737
lowerneck -10.9821 0.505666 -1.98017
upperneck 39.4984 0.900126 1.01027
head 15.8063 0.213843 0.936897
rclavicle -4.62174e-015 -6.36111e-015
rhumerus -27.2406 -19.0872 -78.8945
rradius 22.3018
rwrist 34.7087
rhand -20.2621 -26.1471
rfingers 7.12502
rthumb 6.08682 -56.0396
lclavicle -4.62174e-015 -6.36111e-015
lhumerus -23.31 -6.62879 91.5494
lradius 18.0009
lwrist 5.20242
lhand -25.3269 -5.19407
lfingers 7.12502
lthumb 1.19581 24.7823
rfemur -14.7756 -3.08567 19.8359
rtibia 19.8436
rfoot -11.1541 -3.32151
rtoes 16.3894
lfemur -13.6212 6.4686 -17.4841
ltibia 16.1144
lfoot -8.41609 0.475198
ltoes 5.52323
480
root 0.237521 17.8308 -1.99498 7.62732 1.00868 -1.32149
lowerback -1.98651 -0.934969 -0.32181
upperback 3.04332 -1.30748 1.88065
thorax 4.30253 -0.694389 2.04697
lowerneck -10.9737 0.500621 -1.97591
upperneck 39.5117 0.893997 1.00482
head 15.8114 0.2113 0.932976
rclavicle -1.0138e-014 -5.96354e-015
rhumerus -27.2113 -19.0107 -78.9566
rradius 22.3238
rwrist 34.6913
rhand -20.2455 -26.1632
rfingers 7.12502
rthumb 6.10283 -56.0553
lclavicle -1.0138e-014 -5.96354e-015
lhumerus -23.2091 -6.69434 91.5837
lradius 18.1736
lwrist 5.39932
lhand -25.2436 -4.96869
lfingers 7.12502
lthumb 1.27633 25.0072
rfemur -14.7829 -3.07015 19.807
rtibia 19.8459
rfoot -11.153 -3.35187
rtoes 16.3583
lfemur -13.5975 6.50351 -17.5135
ltibia 16.0544
lfoot -8.39799 0.428886
ltoes 5.59334
481
root 0.236708 17.8314 -1.99618 7.63057 1.00513 -1.29376
lowerback -1.99815 -0.922472 -0.309406
upperback 3.05162 -1.29075 1.86119
thorax 4.31631 -0.685406 2.02063
lowerneck -10.9755 0.497479 -1.96545
upperneck 39.5251 0.891253 0.99426
head 15.819 0.210372 0.92634
rclavicle -2.68359e-015 -1.82882e-014
rhumerus -27.1764 -18.9116 -79.027
rradius 22.3526
rwrist 34.6578
rhand -20.2334 -26.1846
rfingers 7.12502
rthumb 6.1145 -56.0763
lclavicle -2.68359e-015 -1.82882e-014
lhumerus -23.1031 -6.75371 91.6075
lradius 18.3526
lwrist 5.5851
lhand -25.1634 -4.7562
lfingers 7.12502
lthumb 1.35376 25.2192
rfemur -14.7938 -3.0485 19.7782
rtibia 19.8512
rfoot -11.15 -3.38155
rtoes 16.3311
lfemur -13.5747 6.53768 -17.5418
ltibia 15.9959
lfoot -8.37912 0.388121
ltoes 5.66543
482
root 0.23593 17.832 -1.9976 7.63408 0.999182 -1.26699
lowerback -2.00897 -0.909802 -0.296535
upperback 3.05933 -1.27377 1.84134
thorax 4.329 -0.676268 1.99366
lowerneck -10.9863 0.496168 -1.95074
upperneck 39.5394 0.891986 0.979469
head 15.8293 0.210928 0.917744
rclavicle -3.18055e-015 -7.95139e-015
rhumerus -27.138 -18.8009 -79.1001
rradius 22.383
rwrist 34.6156
rhand -20.2303 -26.2067
rfingers 7.12502
rthumb 6.11746 -56.0984
lclavicle -3.18055e-015 -7.95139e-015
lhumerus -22.998 -6.8152 91.6258
lradius 18.5374
lwrist 5.7714
lhand -25.0622 -4.51308
lfingers 7.12502
lthumb 1.45149 25.4617
rfemur -14.8065 -3.03158 19.7507
rtibia 19.8588
rfoot -11.1475 -3.40375
rtoes 16.313
lfemur -13.5535 6.57448 -17.5693
ltibia 15.9394
lfoot -8.3609 0.346371
ltoes 5.73551
483
root 0.235168 17.8325 -1.99927 7.63862 0.990248 -1.24462
lowerback -2.01951 -0.897717 -0.281116
upperback 3.06704 -1.25773 1.82285
thorax 4.34156 -0.667535 1.96662
lowerneck -11.0017 0.497835 -1.93382
upperneck 39.5496 0.897448 0.962666
head 15.8385 0.213534 0.908609
rclavicle -1.03368e-014 1.59028e-015
rhumerus -27.0913 -18.6814 -79.176
rradius 22.4129
rwrist 34.5717
rhand -20.222 -26.2362
rfingers 7.12502
rthumb 6.12546 -56.1277
lclavicle -1.03368e-014 1.59028e-015
lhumerus -22.8914 -6.87599 91.6385
lradius 18.7266
lwrist 5.95513
lhand -24.9546 -4.27364
lfingers 7.12502
lthumb 1.55543 25.7004
rfemur -14.8218 -3.01688 19.7282
rtibia 19.8673
rfoot -11.1463 -3.42
rtoes 16.2981
lfemur -13.5358 6.61046 -17.5918
ltibia 15.8868
lfoot -8.34234 0.30915
ltoes 5.79467
484
root 0.234405 17.833 -2.00094 7.64251 0.978481 -1.22392
lowerback -2.02744 -0.886223 -0.266635
upperback 3.07205 -1.24243 1.80561
thorax 4.34994 -0.65919 1.94142
lowerneck -11.015 0.502268 -1.91424
upperneck 39.5556 0.906422 0.945309
head 15.8449 0.217955 0.899241
rclavicle -2.5842e-015 -7.95139e-016
rhumerus -27.0411 -18.5666 -79.2465
rradius 22.4341
rwrist 34.5384
rhand -20.2134 -26.2658
rfingers 7.12502
rthumb 6.13376 -56.157
lclavicle -2.5842e-015 -7.95139e-016
lhumerus -22.7907 -6.93491 91.6482
lradius 18.9201
lwrist 6.13763
lhand -24.8626 -4.04765
lfingers 7.12502
lthumb 1.64423 25.9258
rfemur -14.836 -3.00582 19.7075
rtibia 19.8752
rfoot -11.1473 -3.42851
rtoes 16.2827
lfemur -13.5183 6.64224 -17.6121
ltibia 15.8376
lfoot -8.3238 0.279493
ltoes 5.84702
